<svg id="Layer_1" data-name="Layer 1" xmlns="http://www.w3.org/2000/svg" viewBox="0 0 566.93 566.93"><defs><style>.cls-1{fill:#fff;}</style></defs><g id="DtY53N"><path class="cls-1" d="M356.54,136.76V121H340.75V104.51H324.3V88.08H307.85V71.5H291.48V23.06h-114V39.41H161.37V55.55h16.24v16.3h32.53V88.1h32.35v65.16h-16.1v16.39H209.93v32.24H193.8v32.83H177.71V267H161.28v32.91H144.82v16.43H128.53c0,1.52,0,2.81,0,4.1q-.08,14.07-.17,28.14H112.28v32.81H96v16.2H79.87v16.2H242.52v16.36H31.06v32.6H47.27V479H63.38v16.26H79.8v16.49H96.19V528h16.25v15.83H389.53v-16H422V511.48h32.61V495.23H487V478.89h32.69v-16.2h16.18V430H291.76V413.65H503.09V381.46H486.75c.1-1,.31-2,.31-3q0-21.1,0-42.22v-4.11H471V299.88H454.54V267H438.1V234.77H421.64V201.91H405.59V169.65H389.42V153.2H373c0-4.62,0-9.25.1-13.87.06-2.06-.77-2.57-2.66-2.54C365.79,136.87,361.16,136.78,356.54,136.76Z"/><path d="M486.75,381.46h16.34v32.19H291.76V430H535.87v32.65H519.69v16.2H487v16.34H454.57v16.25H422v16.35H389.53v16H112.44V528H96.19v-16.3H79.8V495.25H63.38V479H47.27V462.73H31.06v-32.6H242.52V413.77H79.87v-16.2H96v-16.2h16.28V348.56h16.08l-.06-.08q0,16.09.09,32.19c0,.16-.23.31-.58.75H112.62v15.84H242.55V169.56H226.31l.08.09V153.26h16.1V88.1H210.14V71.85H177.61V55.55H161.37V39.41h16.07V23.06h114V71.5h16.37V88.08l.09-.08H291.72V397.32H486.87v-16ZM96.32,511c4.45,0,8.59.11,12.72,0,2.65-.09,3.85.64,3.67,3.6-.27,4.19-.07,8.42-.07,12.59H389c0-4.28.15-8.34-.05-12.37-.14-3,1-3.86,3.88-3.81,8.62.15,17.24,0,25.86.08,2.2,0,3.11-.64,3-3-.18-3-.08-6.08-.08-9.12,0-4,0-4,3.89-4H454c0-4.74.06-9.08,0-13.41,0-2.13.64-3.05,3-3,5.87.15,11.76.05,17.64.05h12.08c0-4.6.14-8.84,0-13.07-.11-2.6.87-3.24,3.34-3.2,8.72.13,17.44.06,26.16,0,1.07,0,2.13-.13,3.12-.2V446.77H47.65v15.61c4.61,0,9,.1,13.31,0,2.27-.08,3,.69,2.91,3-.17,4.32,0,8.65,0,13.32H76.11c4.09,0,4.09,0,4.1,4.24,0,2.74.17,5.49,0,8.21-.23,2.94.53,4.3,3.81,3.94,2.91-.32,5.89.11,8.81-.11,2.73-.21,3.79.57,3.61,3.48C96.13,502.44,96.32,506.51,96.32,511ZM259.48,88.62v341h15.21v-341Z"/><path d="M177.71,267V234.72H193.8V201.89h16.13l-.07-.1v33H193.67v32.13h-16Z"/><path d="M389.42,169.65h16.17v32.26h16.05v32.86l.1-.09H405.58V201.89H389.5V169.55Z"/><path d="M471,332.13h16.08v4.11q0,21.11,0,42.22c0,1-.21,2-.31,3l.12-.11h-16c0-6.18,0-11.94,0-17.7q.08-15.81.17-31.62Z"/><path d="M438.1,267h16.44v32.88l.07-.08H438.18V266.92Z"/><path d="M161.28,299.89V267h16.43l-.09-.06V299.8H161.18Z"/><path d="M209.93,201.89V169.65h16.46l-.08-.09v32.23H209.86Z"/><path d="M421.64,234.77H438.1V267l.08-.08H421.74V234.68Z"/><path d="M454.54,299.88H471v32.25l.07-.1H454.61V299.8Z"/><path d="M128.36,348.56q.09-14.07.17-28.14c0-1.29,0-2.58,0-4.1h16.29l-.07-.08v32.24H128.3Z"/><path d="M307.85,88.08H324.3v16.43l.07-.07H307.94V88Z"/><path d="M324.3,104.51h16.45V121l.05-.08H324.37V104.44Z"/><path d="M373,153.2h16.44v16.45l.08-.1H373.06V153.12Z"/><path d="M144.82,316.32V299.89h16.46l-.1-.09v16.44H144.75Z"/><path d="M356.54,136.76c4.62,0,9.25.11,13.88,0,1.89,0,2.72.48,2.66,2.54-.14,4.62-.08,9.25-.1,13.87l.08-.08H356.62V136.68Z"/><path d="M340.75,121h15.79v15.8l.08-.08H340.8v-15.8Z"/><path class="cls-1" d="M340.8,120.88v15.8h15.82v16.44h16.44v16.43H389.5v32.34h16.08v32.79h16.16v32.24h16.44V299.8h16.43V332h16.45q-.07,15.81-.17,31.62c0,5.76,0,11.52,0,17.7h16v16H291.72V88h16.22v16.44h16.43v16.44Z"/><path class="cls-1" d="M96.32,511c0-4.53-.19-8.6.07-12.64.18-2.91-.88-3.69-3.61-3.48-2.92.22-5.9-.21-8.81.11-3.28.36-4-1-3.81-3.94.22-2.72,0-5.47,0-8.21,0-4.22,0-4.23-4.1-4.24H63.82c0-4.67-.12-9,0-13.32.09-2.28-.64-3.05-2.91-3-4.35.13-8.7,0-13.31,0V446.77H519.29V462.2c-1,.07-2,.2-3.12.2-8.72,0-17.44.09-26.16,0-2.47,0-3.45.6-3.34,3.2.18,4.23,0,8.47,0,13.07H474.63c-5.88,0-11.77.1-17.64-.05-2.34-.06-3,.86-3,3,.08,4.33,0,8.67,0,13.41h-28.6c-3.87,0-3.88,0-3.89,4,0,3-.1,6.09.08,9.12.13,2.32-.78,3-3,3-8.62-.08-17.24.07-25.86-.08-2.9,0-4,.85-3.88,3.81.2,4,.05,8.09.05,12.37H112.64c0-4.17-.2-8.4.07-12.59.18-3-1-3.69-3.67-3.6C104.91,511.15,100.77,511,96.32,511Z"/><path class="cls-1" d="M144.75,316.24h16.43V299.8h16.44V266.92h16V234.79h16.19v-33h16.45V169.56h16.24v227.7H112.62V381.42h15.19c.35-.44.58-.59.58-.75q0-16.1-.09-32.19h16.45Z"/></g></svg>