<?xml version="1.0" encoding="utf-8"?>
<!-- Generator: Adobe Illustrator 26.2.1, SVG Export Plug-In . SVG Version: 6.00 Build 0)  -->
<svg version="1.1" id="Layer_1" xmlns="http://www.w3.org/2000/svg" xmlns:xlink="http://www.w3.org/1999/xlink" x="0px" y="0px"
	 viewBox="0 0 504.8 520.8" style="enable-background:new 0 0 504.8 520.8;" xml:space="preserve">
<style type="text/css">
	.st0{fill:#FFFFFF;}
</style>
<g id="Layer_2_00000051354383802993539530000013900994876187125384_">
	<g id="Layer_1-2">
		<g id="DtY53N">
			<path class="st0" d="M455.7,358.4H472v32.2H260.7V407h244.1v32.6h-16.2v16.2h-32.7v16.4h-32.4v16.2h-32.6v16.4h-32.4v16H81.4V505
				H65.1v-16.3H48.7v-16.5H32.3v-16.3H16.2v-16.3H0v-32.6h211.5v-16.4H48.8v-16.2h16.1v-16.2h16.3v-32.8h16.1l-0.1-0.1
				c0,10.7,0.1,21.5,0.1,32.2c0,0.1-0.2,0.3-0.6,0.7H81.6v15.9h129.9V146.5h-16.2l0.1,0.1v-16.4h16.1V65h-32.4V48.8h-32.5V32.5
				h-16.2V16.4h16.1V0h114v48.4h16.4V65l0.1-0.1h-16.2v309.3h195.1v-16L455.7,358.4z M65.3,488c4.5,0,8.6,0.1,12.7,0
				c2.7-0.1,3.9,0.6,3.7,3.6c-0.3,4.2-0.1,8.4-0.1,12.6h276.3c0-4.3,0.1-8.3,0-12.4c-0.1-3,1-3.9,3.9-3.8c8.6,0.1,17.2,0,25.9,0.1
				c2.2,0,3.1-0.6,3-3c-0.2-3-0.1-6.1-0.1-9.1c0-4,0-4,3.9-4H423c0-4.7,0-9.1,0-13.4c0-2.1,0.6-3.1,3-3c5.9,0.1,11.8,0,17.6,0h12.1
				c0-4.6,0.1-8.8,0-13.1c-0.1-2.6,0.9-3.2,3.3-3.2c8.7,0.1,17.4,0.1,26.2,0c1.1,0,2.1-0.1,3.1-0.2v-15.4H16.6v15.6
				c4.6,0,9,0.1,13.3,0c2.3-0.1,3,0.7,2.9,3c-0.2,4.3,0,8.6,0,13.3h12.3c4.1,0,4.1,0,4.1,4.2c0,2.7,0.2,5.5,0,8.2
				c-0.2,2.9,0.5,4.3,3.8,3.9c2.9-0.3,5.9,0.1,8.8-0.1c2.7-0.2,3.8,0.6,3.6,3.5C65.1,479.4,65.3,483.4,65.3,488z M228.4,65.6v341
				h15.2v-341L228.4,65.6z"/>
			<path class="st0" d="M146.6,243.9v-32.3h16.1v-32.8h16.1l-0.1-0.1v33h-16.2v32.1L146.6,243.9L146.6,243.9z"/>
			<path class="st0" d="M358.4,146.6h16.2v32.3h16.1v32.9l0.1-0.1h-16.2v-32.8h-16.1L358.4,146.6L358.4,146.6z"/>
			<path class="st0" d="M439.9,309.1H456v4.1c0,14.1,0,28.2,0,42.2c0,1-0.2,2-0.3,3l0.1-0.1h-16c0-6.2,0-11.9,0-17.7
				C439.9,330.1,439.9,319.5,439.9,309.1L439.9,309.1z"/>
			<path class="st0" d="M407,243.9h16.4v32.9l0.1-0.1h-16.4L407,243.9L407,243.9z"/>
			<path class="st0" d="M130.2,276.8v-32.9h16.4h-0.1v32.9L130.2,276.8L130.2,276.8z"/>
			<path class="st0" d="M178.9,178.8v-32.2h16.5l-0.1-0.1v32.2L178.9,178.8L178.9,178.8z"/>
			<path class="st0" d="M390.6,211.7H407v32.2l0.1-0.1h-16.4v-32.2L390.6,211.7z"/>
			<path class="st0" d="M423.5,276.8h16.5v32.2l0.1-0.1h-16.4L423.5,276.8L423.5,276.8z"/>
			<path class="st0" d="M97.3,325.5c0-9.4,0.1-18.8,0.2-28.1c0-1.3,0-2.6,0-4.1h16.3l-0.1-0.1v32.2L97.3,325.5L97.3,325.5z"/>
			<path class="st0" d="M276.8,65h16.5v16.5l0.1-0.1h-16.4L276.8,65L276.8,65z"/>
			<path class="st0" d="M293.2,81.5h16.4v16.4l0.1-0.1h-16.4L293.2,81.5L293.2,81.5z"/>
			<path class="st0" d="M341.9,130.1h16.4v16.4l0.1-0.1H342L341.9,130.1L341.9,130.1z"/>
			<path class="st0" d="M113.8,293.3v-16.4h16.5l-0.1-0.1v16.4L113.8,293.3L113.8,293.3z"/>
			<path class="st0" d="M325.5,113.7c4.6,0,9.3,0.1,13.9,0c1.9,0,2.7,0.5,2.7,2.5c-0.1,4.6-0.1,9.2-0.1,13.9l0.1-0.1h-16.4
				L325.5,113.7L325.5,113.7z"/>
			<path class="st0" d="M309.7,97.9h15.8v15.8l0.1-0.1h-15.8L309.7,97.9L309.7,97.9z"/>
		</g>
	</g>
</g>
</svg>
